<svg width="52" height="45" viewBox="0 0 52 45" fill="none" xmlns="http://www.w3.org/2000/svg">
<path d="M51.1562 20.9375C51.1562 18.5251 49.1936 16.5625 46.7812 16.5625H38.6162C39.8802 13.3247 40.3919 9.51361 40.2932 6.12112C40.2744 5.47373 40.2496 5.09934 40.216 4.86364C40.1595 2.50038 38.2189 0.59375 35.8438 0.59375C33.4314 0.59375 31.4688 2.55638 31.4688 4.96875V6.0625C31.4688 12.98 22.586 16.8667 15.8824 18.5333C15.3755 17.3746 14.2186 16.5625 12.875 16.5625H1.9375C1.33353 16.5625 0.84375 17.0523 0.84375 17.6562V43.9062C0.84375 44.5102 1.33353 45 1.9375 45H12.875C14.2096 45 15.3599 44.1986 15.872 43.0521C16.4271 43.1945 16.9423 43.3291 17.418 43.4533C21.2368 44.4507 23.3404 45 28.4566 45H40.2188C42.6311 45 44.5938 43.0374 44.5938 40.625C44.5938 39.7255 44.3206 38.8888 43.8533 38.1927C45.5429 37.6018 46.7812 35.9874 46.7812 34.0625C46.7812 33.1663 46.5148 32.3268 46.0489 31.6276C47.7311 31.0357 48.9688 29.425 48.9688 27.5C48.9688 26.6005 48.6956 25.7638 48.2283 25.0677C49.9179 24.4768 51.1562 22.8624 51.1562 20.9375ZM13.9688 41.7188C13.9688 42.3218 13.4781 42.8125 12.875 42.8125H3.03125V18.75H12.875C13.4781 18.75 13.9688 19.2407 13.9688 19.8438V41.7188ZM46.7812 23.125C44.4353 23.125 43.876 23.125 41.3125 23.125C40.7085 23.125 40.2188 23.6148 40.2188 24.2188C40.2188 24.8227 40.7085 25.3125 41.3125 25.3125H44.5938C45.7999 25.3125 46.7812 26.2938 46.7812 27.5C46.7812 28.7082 45.8019 29.6875 44.5938 29.6875H39.125C38.521 29.6875 38.0312 30.1773 38.0312 30.7812C38.0312 31.3852 38.521 31.875 39.125 31.875H42.4062C43.5981 31.875 44.5938 32.8271 44.5938 34.0625C44.5938 35.2707 43.6144 36.25 42.4062 36.25C40.0603 36.25 39.501 36.25 36.9375 36.25C36.3335 36.25 35.8438 36.7398 35.8438 37.3438C35.8438 37.9477 36.3335 38.4375 36.9375 38.4375H40.2188C41.4249 38.4375 42.4062 39.4188 42.4062 40.625C42.4062 41.8312 41.4249 42.8125 40.2188 42.8125H28.4566C23.6214 42.8125 21.733 42.3193 17.9708 41.3368C17.4196 41.1929 16.8151 41.035 16.1562 40.8671V20.7215C24.0715 18.8361 33.6562 14.234 33.6562 6.0625V4.96875C33.6562 3.76256 34.6376 2.78125 35.8438 2.78125C37.0477 2.78125 38.029 3.76103 38.0312 4.96536V4.96875C38.0312 5.44409 38.6245 11.2778 36.2456 16.5625H32.5625C31.9585 16.5625 31.4688 17.0523 31.4688 17.6562C31.4688 18.2602 31.9585 18.75 32.5625 18.75C33.3263 18.75 45.5346 18.75 46.7812 18.75C47.9874 18.75 48.9688 19.7313 48.9688 20.9375C48.9688 22.1457 47.9894 23.125 46.7812 23.125Z" fill="#282630"/>
</svg>
