<svg width="56" height="50" viewBox="0 0 56 50" fill="none" xmlns="http://www.w3.org/2000/svg">
<path d="M52.1126 4.84888C49.5024 1.91511 45.8818 0.299426 41.918 0.299426C37.5835 0.299426 33.6283 1.97953 30.4802 5.15819C29.3855 6.26343 28.5672 7.36768 28 8.24399C27.4328 7.36779 26.6145 6.26364 25.5198 5.15819C22.3717 1.97943 18.4166 0.299316 14.082 0.299316C5.78528 0.299316 0 7.24037 0 15.4927C0 26.64 11.8129 36.026 27.2837 49.4335C27.4892 49.6117 27.7446 49.7007 28 49.7007C28.2554 49.7007 28.5108 49.6117 28.7163 49.4335C44.2239 35.994 56 26.6245 56 15.4927C56 11.4464 54.6195 7.66638 52.1126 4.84888ZM28 47.1602C13.3909 34.5182 2.1875 25.4383 2.1875 15.4927C2.1875 8.07818 7.301 2.48693 14.082 2.48693C17.8472 2.48693 21.1543 3.88539 23.9117 6.64328C26.0123 8.74438 26.9924 10.8887 27.0021 10.9101C27.178 11.3024 27.5682 11.5544 27.9984 11.5553C27.999 11.5553 27.9998 11.5553 28.0004 11.5553C28.4305 11.5553 28.8212 11.3023 28.998 10.9101C29.0077 10.8887 29.9878 8.74449 32.0884 6.64328C34.8457 3.88529 38.1528 2.48693 41.9181 2.48693C48.6991 2.48693 53.8126 8.07818 53.8126 15.4927C53.8125 25.6628 41.8698 35.1579 28 47.1602Z" fill="#282630"/>
</svg>
